<svg xmlns="http://www.w3.org/2000/svg" xmlns:xlink="http://www.w3.org/1999/xlink" viewBox="0 0 177.1 139.1" enable-background="new 0 0 177.1 139.1"><path fill="#FFE500" d="M75.5 1.2l-28.8 25.6-19 17.4-8.5 7.6-2.5 1.7.7 29.8 30.1 28.4 21.3 19 7 6.1 3.1-.2 31.6-27.2 21.8-20.5 5.1-4.5 1.5-11.3 3.6-18.8-19.3-15.2-39.2-34.6-4.1-3-2.3-.9-2.1.6"/><defs><path id="a" d="M77.6 2.2h.1-.1m67.8 62.4c-4-4.5-12.5-13.6-32-31.6-29.5-27.5-34.9-30.4-35.7-30.8-.8.3-6.2 3.2-35.3 30.7-14.8 14-25.3 24.3-31.4 30.7-2.6 2.8-4.4 4.9-4.6 5.2.5 1 4.7 6.9 36.4 36.3 13.6 12.6 23.6 21.5 29.7 26.5.9.7 5 3.9 5 3.9h.2c.4-.1 5.1-1.8 35.9-30.8 19-17.9 27.5-26.9 31.6-31.5l.2-8.6m-139.2 4.7c.1-.2.1-.4.1-.5l-.1.5"/></defs><clipPath id="b"><use xlink:href="#a" overflow="visible"/></clipPath><path clip-path="url(#b)" fill="#FFE500" d="M65.5 122.7l-3.6-4.4-3.7-4.2-2.5-2.6c-13.4-13.3-40.6-40.6-40.9-40.9l-.1-.2c0-.1.1-.2.1-.2 1.2-1.1 27.7-26.7 42.2-39l22.3-18-.7-13.8-33.9 30.3c-12.4 10.9-36.1 36.9-36.3 37.1-.6.5-.9 1.3-.9 2.1s.3 1.6 1 2.2l.1.1c4.1 3.9 25 23.8 35.6 34 3.6 3.5 4.9 4.5 6.2 5.6l5.8 4.7 9.3 7.2z"/><path clip-path="url(#b)" fill="#FFE600" d="M61.8 118.4s-.5-.5-3.7-4.2l-2.5-2.6-35.2-35.2-5.7-5.7-.1-.3.1-.3c2.8-2.7 28.2-27.1 42.2-39 0 0 21.8-17.6 22.2-18 0-.1-.6-13-.6-13.5-.3.4-33.7 30.2-33.7 30.2-12.5 10.9-36.1 36.9-36.4 37.1-.6.5-.9 1.3-.9 2.1s.3 1.5.9 2.1l.1.1c4.1 3.9 25 23.8 35.6 34 3.5 3.4 4.9 4.5 6.1 5.5l5.9 4.8s6.4 4.9 8.6 6.5c-.7-.9-2.9-3.6-2.9-3.6zM61.7 118.5s-.3-.4-3.7-4.2l-2.5-2.6-35.2-35.2-5.7-5.7-.2-.3.1-.4c2.9-2.8 28.1-27 42.2-39 0 0 21.8-17.6 22.2-18 0-.1-.6-12.7-.6-13.2-.4.3-33.6 29.9-33.6 29.9-12.3 11-36 36.9-36.2 37.2-.6.5-.9 1.2-.9 2s.3 1.5.9 2l.1.1c7.5 7.1 25.8 24.6 35.6 34 3.5 3.4 4.9 4.5 6.1 5.5l5.9 4.8s6.8 5.2 7.9 6c-.7-.9-2.4-2.9-2.4-2.9z"/><path clip-path="url(#b)" fill="#FFE700" d="M61.6 118.5s-.3-.3-3.7-4.2l-2.5-2.6-35.1-35.2-5.7-5.7-.2-.3.1-.5c.3-.3 27.3-26.3 42.3-39.1 0 0 21.8-17.6 22.2-17.9 0-.1-.6-12.4-.6-12.9-.4.4-33.5 29.8-33.5 29.8-12.1 10.7-35.4 36.2-36.3 37.1-.5.5-.9 1.2-.9 1.9s.3 1.4.9 2l.1.1c7.4 7.1 25.8 24.6 35.6 34 3.5 3.4 4.8 4.5 6.1 5.5l5.9 4.8s6 4.5 7.1 5.4c-.6-.8-1.8-2.2-1.8-2.2zM61.5 118.6l.1.1c-.1-.1-.3-.3-3.6-4l-.2-.2-2.5-2.6-35.1-35.3-5.7-5.7-.2-.4.1-.5c.2-.3 27.4-26.5 42.3-39.1 0 0 21.7-17.5 22.1-17.9 0-.1-.6-12.2-.6-12.6-.3.3-33.2 29.6-33.2 29.6-12.3 10.8-35.4 36.1-36.3 37.1-.5.5-.8 1.2-.8 1.9s.3 1.4.8 1.9l.1.1c7.4 7.1 25.8 24.6 35.6 34 3.5 3.4 4.8 4.5 6.1 5.5l5.9 4.8s4.6 3.5 6.4 4.8c-.6-.6-1.3-1.5-1.3-1.5z"/><path clip-path="url(#b)" fill="#FFE70A" d="M61.5 118.7c-.3-.3-.9-1.1-3.5-4l-.2-.2-2.5-2.6-35.2-35.2-5.7-5.7-.2-.4c0-.1.1-.6.1-.6.2-.2 27.3-26.4 42.3-39.1 0 0 21.7-17.5 22.1-17.9 0-.1-.6-11.9-.6-12.3-.4.3-33 29.5-33 29.5-12.3 10.6-35.4 36-36.4 37-.5.4-.7 1.1-.7 1.7 0 .7.3 1.3.8 1.8l.1.1c7.4 7 25.7 24.5 35.6 34 3.5 3.4 4.8 4.5 6.1 5.5l5.9 4.8s4.7 3.6 5.6 4.3c-.3-.3-.6-.7-.6-.7z"/><path clip-path="url(#b)" fill="#FFE81D" d="M61.4 118.7l-3.7-4.2-2.5-2.6-35.2-35.1-5.7-5.8-.2-.4c0-.1.1-.7.1-.7.1-.2 27-26.2 42.4-39.2 0 0 21.7-17.5 22.1-17.8 0-.1-.6-11.6-.6-12-.4.3-32.9 29.3-32.9 29.3-12 10.4-34 34.7-36.4 37-.5.4-.8 1.1-.8 1.7 0 .6.3 1.3.8 1.7l.2.2c7.4 7 25.6 24.4 35.6 34 3.5 3.4 4.8 4.5 6.1 5.5l5.9 4.8c-.1 0 3.9 3 4.8 3.6z"/><path clip-path="url(#b)" fill="#FFE829" d="M57.6 114.6l-2.5-2.6-35.1-35.2-5.7-5.7-.3-.4c0-.1.1-.8.1-.8.1-.1 27.1-26.3 42.4-39.3 0 0 21.6-17.5 22-17.8 0-.1-.6-11.3-.6-11.7-.4.3-32.7 29.2-32.7 29.2-11.9 10.4-33.9 34.6-36.3 37-.5.4-.7 1-.7 1.6 0 .6.3 1.2.7 1.6l.1.2c7.4 7 25.6 24.3 35.6 34 3.5 3.4 4.8 4.5 6.1 5.5l5.9 4.8s2.7 2.1 4.1 3.1c-.8-.9-3.1-3.5-3.1-3.5z"/><path clip-path="url(#b)" fill="#FFE932" d="M57.5 114.7l-2.5-2.6-35.1-35.2-5.7-5.7-.3-.5c0-.2.1-.8.1-.8.1-.1 26.8-26 42.4-39.3 0 0 21.6-17.4 22-17.8 0-.1-.6-11-.6-11.5-.4.3-32.5 29-32.5 29-11.9 10.4-33.9 34.7-36.3 37.1-.4.4-.7 1-.7 1.6 0 .6.3 1.1.7 1.6l.1.1c7.3 7 25.5 24.2 35.6 34 3.5 3.4 4.8 4.5 6.1 5.5h-.1c.1 0 .7.5 5.4 4.3l.6.5s2.6 2 3.2 2.4c-.9-1-2.4-2.7-2.4-2.7z"/><path clip-path="url(#b)" fill="#FFE93B" d="M57.4 114.7l-2.5-2.6-35.1-35.1-5.7-5.7-.3-.5c0-.2.1-.9.1-.9 0-.1 26.8-26.1 42.5-39.4 0 0 21.5-17.4 22-17.7 0-.1-.6-10.7-.6-11.2-.4.3-32.3 28.8-32.3 28.8-12 10.4-34.1 34.7-36.4 37.1-.4.4-.7.9-.7 1.5s.2 1.1.7 1.5l.1.1c7.3 7 25.5 24.3 35.6 34 3.5 3.4 4.8 4.5 6.1 5.5.3.2 1.3 1 5.3 4.3l.6.5s1.4 1.1 2.4 1.8c-.4-.4-1.8-2-1.8-2z"/><path clip-path="url(#b)" fill="#FFE943" d="M57.3 114.8l-2.5-2.6-35.1-35.1-5.7-5.8-.3-.5v-.1l.1-.9c0-.1 26.4-25.8 42.5-39.5 0 0 21.5-17.4 21.9-17.7 0-.1-.6-10.5-.6-10.9-.4.3-32.2 28.7-32.2 28.7-11.8 10.5-33.9 34.8-36.3 37.1-.4.4-.6.9-.6 1.4 0 .5.2 1 .6 1.4l.1.1c7.3 7 25.5 24.3 35.6 34 3.5 3.4 4.8 4.4 6.1 5.5.3.3 5.9 4.8 5.9 4.8s.8.6 1.5 1.1c-.5-.4-1-1-1-1z"/><path clip-path="url(#b)" fill="#FFEA4A" d="M57.2 114.9l-2.5-2.6-35-35.2-5.7-5.7-.3-.5v-.1l.1-.9c.1-.3 27.3-26.6 42.5-39.5 0 0 21.5-17.3 21.9-17.7 0-.1-.6-10.2-.6-10.6-.4.3-32 28.5-32 28.5-11.9 10.3-34 34.6-36.4 37-.4.4-.6.8-.6 1.3s.2 1 .6 1.3l.1.1c7.3 7 25.5 24.3 35.6 34 3.5 3.4 4.8 4.4 6.1 5.5l5.9 4.8s.1.1.6.5c-.1 0-.3-.2-.3-.2z"/><path clip-path="url(#b)" fill="#FFEB51" d="M54.7 112.4l-35.1-35.2-5.7-5.7-.4-.5v-.2l.1-.9c.1-.3 27.3-26.6 42.6-39.6 0 0 21.4-17.3 21.8-17.6 0-.1-.6-9.9-.6-10.3-.4.2-31.8 28.2-31.8 28.2-11.9 10.4-33.9 34.7-36.3 37.1-.4.3-.6.8-.6 1.3s.2.9.6 1.3l.1.1c7.3 7 25.5 24.2 35.6 34 3.5 3.4 4.8 4.4 6 5.5 0 0 4.6 3.7 5.4 4.4-.7-.9-1.7-1.9-1.7-1.9z"/><path clip-path="url(#b)" fill="#FFEB58" d="M54.6 112.5l-35.1-35.2-5.7-5.7-.3-.6-.1-.2.1-1c.1-.3 27.2-26.6 42.6-39.7 0 0 21.4-17.3 21.8-17.6 0-.1-.6-9.6-.6-10-.4.3-31.6 28.2-31.6 28.2-11.8 10.3-34 34.7-36.3 37.1-.3.3-.5.8-.5 1.2 0 .4.2.9.5 1.2l.1.1c7.3 6.9 25.4 24.2 35.6 34 3.5 3.4 4.8 4.4 6 5.4 0 0 3.8 3.1 4 3.3l-.5-.5z"/><path clip-path="url(#b)" fill="#FFEC5E" d="M19.4 77.4l-5.7-5.7-.4-.6-.1-.2v-.1l.1-1c.1-.3 27.2-26.7 42.7-39.7 0 0 21.4-17.2 21.8-17.6 0-.1-.6-9.3-.6-9.8-.4.3-31.5 28.1-31.5 28.1-11.8 10.3-33.9 34.7-36.3 37-.3.3-.5.7-.5 1.1 0 .4.2.8.5 1.1l.1.1c7.3 6.9 25.4 24.1 35.6 34 3.5 3.4 4.8 4.4 6 5.4 0 0 1.4 1.1 2.5 2-2.9-2.8-14.4-14.3-34.2-34.1z"/><path clip-path="url(#b)" fill="#FFEC64" d="M13.7 71.7l-.4-.6-.1-.2v-.1l.1-1c.1-.3 27.2-26.7 42.7-39.8 0 0 21.3-17.2 21.7-17.5 0-.1-.6-9-.6-9.5-.4.3-31.3 27.9-31.3 27.9-11.8 10.3-33.9 34.6-36.3 37-.3.3-.5.7-.5 1 0 .4.2.7.5 1l.1.1c7.3 7 25.4 24.2 35.6 34 3.5 3.4 4.8 4.4 6 5.4 0 0 .4.3.9.7-2.5-2.4-38.4-38.4-38.4-38.4zM13.6 71.8l-.4-.6-.1-.2v-.1l.1-1c.1-.3 27.2-26.8 42.7-39.9 0 0 21.3-17.2 21.7-17.5 0-.1-.6-8.8-.6-9.2-.4.3-31.1 27.7-31.1 27.7-11.7 10.2-33.9 34.6-36.3 37-.3.3-.5.6-.5 1s.2.7.4 1h.2c7.3 7 25.4 24.2 35.6 34 2.8 2.7 4.2 3.9 5.3 4.8-2.8-2.7-37-37-37-37z"/><path clip-path="url(#b)" fill="#FFED6A" d="M13.5 71.9l-.4-.6-.1-.3v-.2l.1-1c.1-.3 27.2-26.8 42.8-40 0 0 21.3-17.1 21.7-17.5 0-.1-.6-8.5-.6-8.9-.5.4-31.1 27.6-31.1 27.6-11.7 10.3-33.9 34.6-36.3 37-.3.2-.4.6-.4.9 0 .3.1.6.4.9l.1.1c5.7 5.4 25 23.8 35.6 34 1.2 1.1 2.1 2 2.8 2.7-3.9-3.9-34.6-34.7-34.6-34.7zM13.4 71.9l-.4-.6-.1-.3v-.2l.1-1c.1-.3 27.2-26.8 42.8-40 0 0 21.2-17.1 21.6-17.5 0-.1-.6-8.2-.6-8.6-.4.3-30.8 27.4-30.8 27.4-11.7 10.3-33.9 34.6-36.3 37-.2.2-.4.5-.4.8 0 .3.1.6.4.8l.1.1c5.1 4.8 21.1 20 32 30.5l-28.4-28.4z"/><path clip-path="url(#b)" fill="#FFEE76" d="M13.4 72l-.4-.7-.1-.3v-.2l.1-1.1c.1-.3 27.3-26.9 42.8-40.1 0 0 21.2-17.1 21.6-17.4 0-.1-.6-7.9-.6-8.3-.4.3-30.5 27.3-30.5 27.3-11.7 10.3-33.9 34.6-36.3 37-.2.2-.4.5-.4.7 0 .3.1.5.3.7 0 0 16.5 15.7 25.8 24.6-7.7-7.5-22.3-22.2-22.3-22.2z"/><path clip-path="url(#b)" fill="#FFEE7B" d="M13.3 72.1l-.5-.7-.1-.3-.1-.3.1-1.1c.1-.3 27.3-26.9 42.9-40.2 0 0 21.1-17 21.5-17.4 0-.1-.6-7.6-.6-8.1-.4.3-30.4 27.1-30.4 27.1-11.7 10.3-33.9 34.6-36.3 37-.2.2-.3.4-.3.7 0 .2.1.5.3.6l19.5 18.6c-6.4-6.3-16-15.9-16-15.9z"/><path clip-path="url(#b)" fill="#FFEF81" d="M13.2 72.2l-.1-.1-.4-.6-.1-.3-.1-.3.1-1.1c.1-.3 27.3-27 42.9-40.3 0 0 21.1-17 21.5-17.4 0-.1-.6-7.3-.6-7.8-.4.3-30.2 27-30.2 27-11.6 10.3-33.8 34.7-36.2 37-.2.2-.3.4-.3.6 0 .2.1.4.3.6 0 0 8.5 8.1 13.2 12.6-4.8-4.7-10-9.9-10-9.9z"/><path clip-path="url(#b)" fill="#FFEF86" d="M13.1 72.2l-.1-.1.1.1c-.1-.2-.2-.3-.5-.7l-.1-.3-.1-.3.1-1.1c.1-.3 27.3-27 42.9-40.3 0 0 21.1-17 21.5-17.3 0-.1-.6-7.1-.6-7.5-.4.3-30 26.8-30 26.8-11.6 10.1-33.9 34.5-36.3 36.9-.2.2-.3.3-.3.5s.1.4.2.5c0 0 4.9 4.7 6.8 6.5-1.6-1.7-3.6-3.7-3.6-3.7z"/><path clip-path="url(#b)" fill="#FFF08B" d="M13.1 72.3zm-.5-.7l-.2-.4-.1-.3.1-1.1c.1-.3 27.3-27.1 43-40.4 0 0 21-17 21.4-17.3 0-.1-.6-6.8-.6-7.2-.4.3-29.8 26.6-29.8 26.6-11.6 10.2-33.8 34.6-36.2 37-.1.1-.2.3-.2.4 0 .1.1.3.2.4 0 0 1.8 1.7 2.7 2.6-.2-.1-.3-.3-.3-.3z"/><path clip-path="url(#b)" fill="#FFF190" d="M12.5 71.7zm-.2-.4l-.1-.3.1-1.2c.1-.3 27.3-27.1 43-40.5 0 0 21-16.9 21.4-17.3 0-.1-.6-6.5-.6-6.9-.4.3-29.7 26.5-29.7 26.5-11.6 10.2-33.8 34.6-36.2 37-.1.1-.2.3-.2.4 0 .1.1.2.2.3 0 0 1.6 1.5 2.2 2.1l-.1-.1z"/><path clip-path="url(#b)" fill="#FFF195" d="M12.1 70.9l.1-1.2c.1-.3 27.3-27.2 43.1-40.6 0 0 21-16.9 21.4-17.2 0-.1-.6-6.2-.6-6.6-.4.3-29.5 26.3-29.5 26.3-11.5 10.1-33.8 34.6-36.2 37l-.2.3.1.3s1.6 1.6 1.9 1.8l-.1-.1z"/><path clip-path="url(#b)" fill="#FFF29A" d="M12.1 69.7c.1-.3 27.3-27.2 43.1-40.6.2-.2 20.6-16.6 21.3-17.2v-1.5s-.6-4.4-.6-4.8c-.3.3-29.3 26.2-29.3 26.2-9 7.9-24.6 24.5-32 32.5l-4.2 4.4-.1.2.1.2s1.2 1.2 1.7 1.6c-.1-.2 0-1 0-1z"/><path clip-path="url(#b)" fill="#FFF29F" d="M12 69.7c.1-.3 27.3-27.3 43.1-40.7 0 0 20.9-16.8 21.3-17.2v-1.4s-.5-3.7-.6-4.7c-.3.3-29.1 26-29.1 26-9 7.9-24.5 24.5-32 32.5l-4.2 4.4v-.1l-.1.3.1.2c.1.1.5.5 1.6 1.4-.1-.1-.1-.7-.1-.7z"/><path clip-path="url(#b)" fill="#FFF3A3" d="M11.9 69.7c.1-.3 27.3-27.3 43.1-40.8 0 0 20.8-16.8 21.2-17.1v-1.4s-.5-3.5-.5-4.4c-.3.3-29 25.9-29 25.9-9 7.9-24.5 24.5-32 32.5l-4.2 4.5.1.1h-.1c.1.1.5.4 1.4 1.3v-.6z"/><path clip-path="url(#b)" fill="#FFF3A8" d="M11.8 69.7c.1-.4 27.4-27.4 43.2-40.9l11.6-9.5 9.6-7.6c0-.1-.6-4.6-.6-5.5-.4.3-28.8 25.8-28.8 25.8-9 7.9-24.5 24.5-32 32.5-.1.1-.2.3-.6.7l-3.6 3.8v.1c.2.1.5.4 1.1 1.1.1-.3.1-.5.1-.5z"/><path clip-path="url(#b)" fill="#FFF4AD" d="M11.7 69.7c.1-.4 27.4-27.5 43.2-40.9 0-.1.1-.1.3-.3l20.8-16.8c0-.1-.6-4.8-.6-5.2-.3.3-28.6 25.5-28.6 25.5-9 7.9-24.5 24.5-32 32.5l-.6.6s-3.2 3.4-3.6 3.8c.1.1.7.6.9.9l.2-.1z"/><path clip-path="url(#b)" fill="#FFF4B1" d="M46.9 32.1c-9 7.9-24.5 24.5-32 32.5l-.6.6s-3.1 3.3-3.5 3.7l.7.7c.1-.3 27.4-27.5 43.3-40.9l.3-.3s20.3-16.4 20.8-16.8c0-.1-.1-1.2-.1-1.2-.2-1.3-.4-3.2-.4-3.8-.3.4-28.5 25.5-28.5 25.5z"/><path clip-path="url(#b)" fill="#FFF5B5" d="M47 32.2c-9 7.9-24.5 24.5-32 32.5 0 0-3.6 3.9-4 4.2l.6.5c1.8-2 27.9-27.8 43.2-40.8l.3-.3s20.1-16.2 20.7-16.7c0-.1-.1-1.2-.1-1.2s-.3-2.8-.4-3.6c-.3.4-28.3 25.4-28.3 25.4z"/><path clip-path="url(#b)" fill="#FFF5BA" d="M47.1 32.3c-9 7.9-24.5 24.5-31.9 32.5 0 0-3.8 4.1-4 4.2l.4.4c2.2-2.4 28-28 43.1-40.8l.3-.3 20.7-16.7c0-.1-.1-1.1-.1-1.1s-.3-2.6-.4-3.4c-.3.3-28.1 25.2-28.1 25.2z"/><path clip-path="url(#b)" fill="#FFF6BE" d="M47.1 32.4c-9 7.9-24.5 24.5-31.9 32.4 0 0-3.8 4-3.9 4.1l.3.2c2.6-2.7 28-27.9 43.1-40.7l.3-.3 11.5-9.3 9.1-7.3c0-.1-.1-1.1-.1-1.1s-.3-2.8-.4-3.1c-.3.3-28 25.1-28 25.1z"/><path clip-path="url(#b)" fill="#FFF7C2" d="M47.2 32.4c-9 7.9-24.5 24.5-31.9 32.4l-2 2.1s-1.7 1.8-1.8 1.9l.1.1c2.8-3 28-27.9 43-40.6l.3-.3v.1c.1-.1.4-.4 2-1.7l18.6-15c0-.1-.1-1-.1-1s-.3-2.6-.3-2.9c-.3.3-27.9 24.9-27.9 24.9z"/><path clip-path="url(#b)" fill="#FFF7C6" d="M47.3 32.5c-9 7.9-24.5 24.5-31.9 32.4 0 .1-.1.2-.4.5 0 0-.7.7-1.1 1.2 7.2-7.2 27.7-27.3 40.7-38.3l.3-.3v.1c.1-.1.3-.3 2-1.7l18.6-15c0-.1-.1-.9-.1-.9s-.3-2.5-.3-2.7c-.4.2-27.8 24.7-27.8 24.7z"/><path clip-path="url(#b)" fill="#FFE500" d="M89.8 15.7l3.6 4.4 3.7 4.2 2.5 2.6c13.3 13.3 40.5 40.6 40.8 40.9l.1.2c0 .1-.1.2-.1.2-1.2 1.1-27.7 26.7-42.2 39l-22.3 18 .6 13.7 33.9-30.3c12.4-10.9 36.1-36.9 36.4-37.1.6-.5.9-1.3.9-2.1s-.3-1.6-1-2.2l-.1-.1c-4.1-3.9-25-23.8-35.6-34-3.6-3.5-4.9-4.5-6.2-5.6l-5.8-4.7-9.2-7.1"/><g clip-path="url(#b)"><defs><path id="c" d="M145.1 72.9c-1.9 2-5.3 5.8-9.5 10.2l2.3-2.3c3.3-3.4 5.6-5.9 7.2-7.7v-.2m-54-55.9c.8.9 2.4 2.9 2.4 2.9h-.1c.1.1.4.4 3.8 4.3l2.5 2.6 35.1 35.2 5.7 5.7.2.3-.1.4c-2.9 2.8-28.1 27-42.2 39 0 0-21.8 17.6-22.2 18 0 .1.3 5.5.5 9.4.1.1.2.1.2.2-.2-3.7-.5-9.4-.5-9.5.4-.3 22.1-17.9 22.1-17.9 14.9-12.6 42-38.9 42.3-39.1l.1-.5-.2-.4-5.7-5.7-35-35.3-2.5-2.6-.2-.2c-3.3-3.7-3.5-4-3.6-4l.1.1s-.7-.9-1.3-1.5c1.8 1.4 6.4 4.8 6.4 4.8l5.9 4.8c1.3 1 2.6 2.1 6.1 5.5 9.4 9 26.5 25.4 34.5 33v-.3c-8.1-7.7-25.1-23.9-34.4-32.9-3.5-3.4-4.9-4.5-6.1-5.5l-5.9-4.9s-6.8-5.1-7.9-5.9"/></defs><clipPath id="d"><use xlink:href="#c" overflow="visible"/></clipPath><path clip-path="url(#d)" fill="#FFE500" d="M76.2 17h69.2v117.9h-69.2z"/></g><path clip-path="url(#b)" fill="#FEE500" d="M145.1 72.5c-2.8 3-9.3 10-16.3 17.3 2.6-2.5 4.8-4.8 6.8-6.8 4.2-4.4 7.6-8.2 9.5-10.2v-.3m-52.6-54.2c.5.7 1.3 1.5 1.3 1.5l-.1-.1c.1.1.3.3 3.6 4l.2.2 2.5 2.6 35.1 35.2 5.7 5.7.2.4-.1.5c-.2.2-27.4 26.5-42.3 39.1 0 0-21.7 17.5-22.1 17.9 0 .1.3 5.8.5 9.5.1.1.2.1.2.2-.2-3.5-.5-9.5-.5-9.6.4-.3 22.1-17.8 22.1-17.8 15.3-13 42.2-39 42.4-39.2 0 0 .1-.6.1-.7l-.2-.4-5.7-5.7-35.1-35.2-2.5-2.6-3.7-4.2-.1-.1c1 .8 4.9 3.7 4.9 3.7l5.9 4.8c1.3 1 2.6 2.1 6.1 5.5 9.6 9.3 26.7 25.6 34.6 33.1v-.3c-8-7.6-25.1-23.9-34.5-33-3.5-3.4-4.8-4.5-6.1-5.5l-5.9-4.8c-.1.1-4.7-3.3-6.5-4.7"/><path clip-path="url(#b)" fill="#FDE500" d="M103.2 114.2c-3.9 3.5-8.9 7.9-13.4 12 3.4-3 7.8-6.9 13.4-12m41.9-42c-3.4 3.6-12.7 13.7-21.7 22.9 1.9-1.9 3.7-3.6 5.4-5.2 7-7.3 13.5-14.3 16.3-17.3v-.4m-51.3-52.6l.1.1 3.7 4.2 2.5 2.6 35.1 35.2 5.7 5.7.2.4c0 .1-.1.7-.1.7-.1.2-27 26.2-42.4 39.2 0 0-21.7 17.5-22.1 17.8 0 .1.3 6.1.5 9.6.1.1.2.1.2.2-.2-3.2-.5-9.6-.5-9.7.4-.3 22-17.8 22-17.8 15.7-13.3 42.4-39.2 42.4-39.3 0 0 .1-.7.1-.8l-.3-.5-5.7-5.7-35.1-35.2-2.5-2.6-2.4-2.7c.6.4 3.2 2.4 3.2 2.4l.6.5c4.7 3.8 5.3 4.3 5.4 4.3h-.1c1.3 1 2.6 2.1 6.1 5.5 9.8 9.4 27 25.8 34.8 33.3v-.3c-7.9-7.5-25.1-23.9-34.6-33.1-3.5-3.4-4.8-4.5-6.1-5.5l-5.9-4.8c.1 0-3.8-3-4.8-3.7M111.1 106.8c-.4.4-.9.8-1.3 1.1 0 0-15.6 14-25.1 22.4 1.4-1.1 3-2.5 5-4.2 4.5-4.1 9.5-8.5 13.4-12 2.5-2.2 5.1-4.6 8-7.3m34-34.9c-4.1 4.4-18.1 19.5-28.9 30.1 2.6-2.5 5-4.8 7.2-6.9 9-9.2 18.3-19.2 21.7-22.9v-.3m-49.7-50.9c.9 1 2.4 2.7 2.4 2.7l2.5 2.6 35.1 35.2 5.7 5.7.3.5c0 .2-.1.8-.1.8-.1.1-26.8 26-42.4 39.3 0 0-21.6 17.4-22 17.8 0 .1.4 6.4.5 9.7.1 0 .1.1.1.1h.2c-.2-2.9-.6-9.5-.6-9.6.4-.4 21.9-17.8 21.9-17.8 16.1-13.6 42.5-39.4 42.5-39.5l.1-.9v-.1l-.3-.5-5.7-5.7-35.1-35.2-2.5-2.5s-.5-.6-1-1.1c.7.5 1.5 1.1 1.5 1.1s5.6 4.5 5.9 4.8c1.3 1 2.6 2.1 6.1 5.5 9.8 9.5 27.2 26 34.9 33.4v-.3c-7.8-7.4-25-23.8-34.8-33.3-3.5-3.4-4.8-4.5-6.1-5.5h.1c-.1 0-.7-.5-5.4-4.3l-.6-.5s-2.7-2-3.2-2.4"/><path clip-path="url(#b)" fill="#FCE500" d="M145.2 71.6c-4.7 5-24.5 26.6-35.4 36.2 0 0-19 17-27.7 24.7.8-.6 1.7-1.3 2.7-2.1 9.5-8.4 25.1-22.4 25.1-22.4.4-.4.8-.7 1.3-1.1l2.4-2.2c.9-.9 1.9-1.7 2.7-2.6 10.8-10.5 24.8-25.7 28.9-30.1v-.4m-48.2-49.1c.5.5 1 1.1 1 1.1l2.5 2.6 35.1 35.2 5.7 5.7.3.5v.1l-.1.9c0 .1-26.4 25.8-42.5 39.5 0 0-21.5 17.4-21.9 17.7 0 .1.4 6.7.6 9.6 0 0 .1 0 .2-.1-.1-2.5-.6-9.4-.6-9.4.4-.3 21.8-17.6 21.8-17.6 15.3-13 42.4-39.3 42.6-39.6l.1-.9v-.2l-.3-.5-5.7-5.7-35.2-35.4s-1-1.1-1.8-1.8c.8.7 5.4 4.4 5.4 4.4 1.3 1 2.6 2.1 6 5.5 9.9 9.6 27.4 26.2 35.1 33.5v-.3c-7.7-7.4-25.1-23.9-34.9-33.4-3.5-3.4-4.8-4.4-6.1-5.5-.3-.3-5.9-4.8-5.9-4.8s-.7-.6-1.4-1.1"/><path clip-path="url(#b)" fill="#FBE500" d="M145.2 71.3c-4.4 4.7-24.6 26.7-35.6 36.3 0 0-22.3 19.9-29.3 26.2.5-.4 1.1-.8 1.8-1.3 8.6-7.7 27.7-24.7 27.7-24.7 11-9.6 30.7-31.2 35.4-36.2v-.3m-46.4-47.1c.7.8 1.8 1.8 1.8 1.8l35.1 35.2 5.7 5.7.3.5v.2l-.1.9c-.1.3-27.3 26.6-42.6 39.6 0 0-21.4 17.3-21.8 17.6 0 .1.4 6.9.6 9.4l.2-.1c-.1-2-.6-9.1-.6-9.2.4-.3 21.8-17.6 21.8-17.6 15.4-13.1 42.5-39.4 42.6-39.7l.1-1v-.1l-.1-.2-.4-.6-5.7-5.7c-19.8-19.8-31.2-31.3-34.3-34.3 1.1.9 2.5 2 2.5 2 1.2 1 2.5 2.1 6 5.4 10.1 9.7 27.7 26.5 35.2 33.6v-.3c-7.6-7.3-25.2-24-35.1-33.5-3.5-3.4-4.8-4.4-6-5.5.2.3-4.4-3.5-5.2-4.1M145.2 70.9c-4.1 4.3-24.6 26.7-35.8 36.5 0 0-26 23.2-30.5 27.2.3-.2.8-.5 1.3-.9 7.1-6.3 29.3-26.2 29.3-26.2 11-9.7 31.2-31.7 35.6-36.3l.1-.3m-43.6-44.2l34.3 34.3 5.7 5.7.4.6.1.2v.1l-.1 1c-.1.3-27.2 26.7-42.6 39.7 0 0-21.4 17.2-21.8 17.6 0 .1.5 7.2.6 9.2l.2-.1c-.1-1.3-.6-8.9-.6-9 .4-.3 21.7-17.5 21.7-17.5 15.5-13.1 42.6-39.6 42.7-39.9l.1-1v-.1l-.1-.2-.4-.6s-34.2-34.3-37-37.1c1.1.9 2.5 2.1 5.3 4.8 10 9.7 27.8 26.7 35.3 33.8v-.3c-7.5-7.2-25.1-23.9-35.2-33.6-3.5-3.4-4.8-4.4-6-5.4-.1-.2-1.5-1.3-2.6-2.2"/><path clip-path="url(#b)" fill="#FAE500" d="M104.7 29.5c2.8 2.8 37 37.1 37 37.1l.4.6.1.2v.1l-.1 1c-.1.3-27.2 26.8-42.7 39.9 0 0-21.3 17.2-21.7 17.5 0 .1.6 7.7.6 9 .2-.1.4-.2.6-.4 4.4-3.9 30.5-27.2 30.5-27.2 11.1-9.8 31.7-32.3 35.8-36.5v-.3c-3.7 3.8-24.6 26.8-35.9 36.7 0 0-30.4 27.1-30.7 27.4 0-.4-.6-8.5-.6-8.6.4-.3 21.6-17.5 21.6-17.5 15.5-13.2 42.7-39.7 42.8-40l.1-1v-.2l-.1-.3-.4-.6s-19.9-20-28.4-28.5c10.8 10.4 26.6 25.4 31.8 30.4v-.3c-7.6-7-25.4-24-35.4-33.7-2.9-2.7-4.2-3.9-5.3-4.8"/><path clip-path="url(#b)" fill="#FAE400" d="M113.4 38c8.5 8.5 28.4 28.5 28.4 28.5l.4.6.1.3v.2l-.1 1c-.1.3-27.2 26.8-42.8 40 0 0-21.2 17.1-21.6 17.5 0 .1.6 8.2.6 8.6.4-.3 30.7-27.4 30.7-27.4 11.3-9.9 32.3-32.9 35.9-36.7v-.3c-3.1 3.2-24.6 26.8-36.1 36.8 0 0-30 26.8-30.4 27.1 0-.4-.6-8-.6-8.1.4-.3 21.5-17.4 21.5-17.4 15.6-13.3 42.8-39.9 42.9-40.2l.1-1.1-.1-.3-.1-.3-.4-.6-.1-.1s-9.6-9.6-16-16.1c6.1 5.8 17.9 17.1 19.3 18.5v-.3c-4.9-4.8-20.7-19.8-31.6-30.2"/><path clip-path="url(#b)" fill="#FAE200" d="M125.9 50.2c6.4 6.5 16 16.1 16 16.1l.1.1.4.6.1.3.1.3-.1 1.1c-.1.3-27.3 26.9-42.9 40.2 0 0-21.1 17-21.5 17.4 0 .1.6 7.6.6 8.1.4-.3 30.4-27.1 30.4-27.1 11.4-10.1 32.9-33.6 36.1-36.8v-.3c-2.4 2.4-24.6 26.8-36.2 37 0 0-29.7 26.5-30 26.8 0-.4-.6-7.4-.6-7.5.4-.3 21.5-17.3 21.5-17.3 15.7-13.3 42.8-40 42.9-40.3l.1-1.1-.1-.3-.1-.3c-.3-.4-.4-.6-.4-.6l-.1-.1-3.7-3.7c1.9 1.8 6.6 6.3 6.8 6.5v-.3c-1.5-1.7-13.3-12.9-19.4-18.8"/><path clip-path="url(#b)" fill="#F9E000" d="M138.4 62.4l3.7 3.7.1.1c.1.1.2.2.4.6l.1.3.1.3-.1 1.1c-.1.3-27.3 27-42.9 40.3 0 0-21.1 17-21.5 17.3 0 .1.6 7.1.6 7.5.4-.3 30-26.8 30-26.8 11.6-10.2 33.8-34.6 36.2-37v-.4c0 .1-.1.1-.2.2-2.4 2.4-24.7 26.8-36.2 37 0 0-29.3 26.2-29.7 26.5 0-.4-.6-6.8-.6-6.9.6-.2 21.6-17.1 21.6-17.1 15.7-13.3 42.9-40.1 43-40.5l.1-1.2-.1-.3-.1-.1c.7.6 2.2 2.1 2.2 2.1.1.1.1.1.1.2v-.3c-.2-.3-4.9-4.7-6.8-6.6"/><path clip-path="url(#b)" fill="#F9DE00" d="M79.4 132.8c0-.4-.5-4.9-.5-4.9l-.1-1.5c.7-.6 21.1-17 21.3-17.2 15.8-13.4 43-40.3 43.1-40.6 0 0 0-.8.1-1 .5.5 1.7 1.6 1.7 1.6l.1.2-.1.2-4.2 4.4c-7.5 8-23 24.6-32 32.5-.1.2-29.1 26-29.4 26.3m63.5-65.8l.1.1.1.3-.1 1.2c-.1.3-27.3 27.1-43 40.5 0 0-21 16.9-21.4 17.3 0 .1.6 6.5.6 6.9.4-.3 29.7-26.5 29.7-26.5 11.6-10.2 33.8-34.6 36.2-37l.2-.2v-.3l-.1-.2c-.1 0-1.6-1.5-2.3-2.1"/><path clip-path="url(#b)" fill="#F8DD00" d="M79.6 132.4c0-.9-.5-4.3-.5-4.3s-.1-1.4-.1-1.5c.4-.4 21.2-17.1 21.2-17.1 15.8-13.5 43.1-40.5 43.2-40.8v-.6c.9.9 1.3 1.2 1.4 1.3h-.1l.1.1c-4 4.3-4.2 4.5-4.2 4.5-7.5 8-23 24.6-32 32.5 0 0-28.7 25.6-29 25.9m63.6-64.8c0 .2-.1 1-.1 1-.1.3-27.3 27.2-43.1 40.6-.2.2-20.6 16.6-21.3 17.2l.1 1.5s.5 4.5.5 4.9c.3-.3 29.3-26.2 29.3-26.2 9-7.9 24.5-24.5 32-32.5l4.2-4.4.1-.2-.1-.2c.1-.1-1.1-1.2-1.6-1.7"/><path clip-path="url(#b)" fill="#F8DB00" d="M100.4 109.6c15.8-13.4 43.1-40.5 43.2-40.8v-.2l.9.9c-.3.4-3.5 3.7-3.6 3.8l-.6.6c-7.5 8-23 24.6-32 32.5 0 0-28.3 25.3-28.6 25.6 0-.4-.6-5.1-.6-5.2l20.8-16.8.5-.4m43-41.5v.6c-.1.3-27.4 27.3-43.2 40.7 0 0-20.8 16.8-21.2 17.1 0 .1.1 1.5.1 1.5s.4 3.4.5 4.3c.3-.3 29-25.9 29-25.9 9-7.9 24.5-24.5 32-32.5 0 0 .2-.2 4.2-4.5l-.1-.1h.1c-.1 0-.5-.3-1.4-1.2"/><path clip-path="url(#b)" fill="#F8D900" d="M143.6 68.6v.2c-.1.3-27.4 27.4-43.2 40.8 0 .1-.1.1-.3.3l-20.8 16.8c0 .1.6 4.8.6 5.2.3-.3 28.6-25.6 28.6-25.6 9-7.9 24.5-24.5 32-32.5l.6-.6s3.2-3.4 3.6-3.8c-.3-.1-.8-.6-1.1-.8"/><path fill="#020D00" d="M135.4 86.1l-.2.2-.5-.5c-.1.1-8 7.9-17.7 17s-35.9 32-37.7 33.1c-1.6 1-2.7.5-3.4 0-.7-.5-2.2-1.7-5.5-4.4l-1.3-1.1c-3-2.4-7.6-6.7-11.7-10.5-1.8-1.7-3.6-3.3-5-4.5-4.5-4-14.2-13.1-19.2-17.8-4.9-4.6-15.3-14.7-15.5-14.8l-.7.8c.1.1 10.6 10.2 15.5 14.8 1.4 1.3 13.7 12.8 19.2 17.8 1.4 1.3 3.1 2.8 5 4.5 4.1 3.8 8.8 8.1 11.8 10.5l1.3 1.1c3.4 2.8 4.8 4 5.6 4.5.7.5 1.5.7 2.2.7l.9-.1c.4.2 1.4.9 1.9 1.2.6.4 1.5 1 3.5-.1 2-1.2 5.8-4 12.2-9.7 6.4-5.7 15.2-13.7 19.4-17.7 4.2-4 13.4-12.6 17.5-16.6 4-3.9 8.1-8 8.1-8l-5.7-.4zM44.2 30.1c2.4-2.3 10.7-10.2 18.8-17.5 6.6-5.9 11.4-9.8 12.5-10.6 1.2-.8 2.1-1.1 3.3-.4 0 0 2.5 1.6 6.4 4.9 1 .9 2.1 1.8 3.2 2.6 3 2.5 6.1 5.1 8.8 7.7 2 1.9 5.3 4.9 8.5 7.8 2.7 2.5 5.3 4.8 7 6.4 3.6 3.4 10.2 9.4 10.3 9.5l.8-.9s-.5-.4-1.2-1.1h1.4l-.4-.5s-13.5-12.6-20.2-18.6c-6.7-6-12.7-11.3-15.8-13.7-3.1-2.4-3.8-2.9-4.6-3.1l-1-.2c-1.6-1.2-2.5-1.8-2.6-1.8-2.1-1.3-3.9-.1-4.7.4-1.1.8-6 4.7-12.7 10.6-8 7.3-16.3 15.3-18.7 17.6-4.6 4.4-14.5 13.6-14.6 13.7l.8.9c.2-.2 10-9.3 14.7-13.7zM61.5 76.7c5.4-4.5 6.8-7.9 6.5-11.9-.3-3.4-1.7-5.7-3.7-7.3-2.5-6.2-9.7-7.5-14.8-8.1-4.8-.5-12.5-.2-17.7 0h-.8v-6.5h-2.9v-3.7l-.3-.9s-13.7 0-26.7.5h-1v49.6h5v2.5h12.9v-17.3h11.9v-10.2h-2.9v-4.9h-9.2v-5.1h12.9v41.8h5v2.5h12.4v-17.5l10 16.6.9-.8 1.1-.9 1.9 3.1c3.6-2.9 10.2-9.2 10.2-9.2-1.2-1.4-2.4-2.8-3.6-4.1l-7.1-8.2zm-13.4-7.5v-7.1h1.9c.3.5.4 1.1.4 1.8.1 1.9-.9 3.7-2.3 5.3zM173.8 70.3l3.3-21.6-2.9-.2.4-2.8-12.7-1-1.4 24.3 4.2.2-6.9 5.6h-1.3v-3.6l-1.4.1c-3.9.3-7.1.3-9.9.3l15.2-28.3c-1.5-.1-3-.2-4.5-.2l2.3-4.3-1.9-.1c-16.8-.9-29.2-.7-33.4-.7h-.5v10.7h-35.9v-3.9h-2.9v-4.7h-11.3l1.7 6.7-5.2 1.3.1 36.8h5.1v2.4h12.5v-25.4c.7 0 1.6 0 2.6-.1v2.3h7v31.2h5.1v2.4h12.8v-33.6h12.1v-10.4c3.8-.2 6.8-.3 9.2-.3l-16.1 31.1h7.1l-1.3 2.5h34.5v-10.1l5.1 6.3 2.4-1.9 1.8 2.2 6.6-5.3-6.4-7.9h4.8z"/><path fill-rule="evenodd" clip-rule="evenodd" fill="#E30613" d="M82.5 41.2v42.6h-12.5v-34.9l5.4-1.3-1.7-6.4zM31.8 50.4c5.2-.2 12.8-.6 17.6 0 6.1.7 14 2.3 14.7 10.9.3 4-1.1 7.5-6.8 12.1l11.1 13c-3 3.1-6.4 6-9.9 8.9l-13.2-22c2.9-2.3 6.3-5.5 6.3-9.3 0-3.7-3.5-5.4-4.7-5.4h-2.7v35.8h-12.4v-44zM97.2 94.2v-33.7l-12.1.3v-11.1h37v11.1l-12.1-.3v33.7zM123.3 50v-11c4.2 0 16.4-.2 33.1.7l-17.7 32.9c3.8.1 9.2.2 16.6-.3v11h-34.5l17.4-33.7c-3.9.2-8.6.1-14.9.4z"/><path fill="#E30613" d="M27 46v4h-13.1v10l12-.1v10.2h-11.9v17.3h-12.9v-47.5l25.9-.5z"/><path fill-rule="evenodd" clip-rule="evenodd" fill="#E30613" d="M161.6 68l8.4.3 3.4-21.6-10.4-.9z"/><path fill="#E30613" d="M159.193 75.034l6.527-5.288 5.288 6.527-6.527 5.288z"/></svg>